<?xml version="1.0" encoding="UTF-8"?>
<svg xmlns="http://www.w3.org/2000/svg" version="1.1" viewBox="0 0 150 150">
  <defs>
    <style>
      .cls-1 {
        fill: none;
      }

      .cls-1, .cls-2, .cls-3, .cls-4, .cls-5 {
        stroke-width: 0px;
      }

      .cls-2 {
        fill: #b5ff00;
      }

      .cls-2, .cls-5 {
        mix-blend-mode: multiply;
      }

      .cls-3 {
        fill: #dbff06;
      }

      .cls-4 {
        fill: #c8ff00;
      }

      .cls-5 {
        fill: #9eff00;
      }

      .cls-6 {
        isolation: isolate;
      }
    </style>
  </defs>
  <g class="cls-6">
    <g id="Layer_1" data-name="Layer 1">
      <g>
        <g>
          <path class="cls-1" d="M76.54,116.92c-.35-.04-.7-.09-1.05-.14.35.04.69.1,1.05.14Z"/>
          <circle class="cls-1" cx="75.03" cy="48.35" r="11.91"/>
          <path class="cls-1" d="M82.03,117.31c-.73-.02-1.44-.08-2.16-.13.72.05,1.44.1,2.16.13Z"/>
          <path class="cls-1" d="M128.75,40.26c2.44-2.44.26-8.59-4.88-13.73s-11.28-7.32-13.73-4.87c-2.44,2.44-.26,8.59,4.88,13.73,5.14,5.14,11.28,7.32,13.73,4.87Z"/>
          <path class="cls-1" d="M136.2,88.44c3.46,0,6.26-5.89,6.26-13.16s-2.8-13.15-6.26-13.15-6.26,5.89-6.26,13.15,2.8,13.16,6.26,13.16Z"/>
          <path class="cls-1" d="M102.07,100.94c6.57,0,11.9-5.33,11.9-11.91s-5.33-11.91-11.9-11.91-11.91,5.33-11.91,11.91,5.33,11.91,11.91,11.91Z"/>
          <path class="cls-1" d="M97.6,116.24c-.38.06-.76.12-1.14.17.38-.06.76-.11,1.14-.17Z"/>
          <path class="cls-1" d="M139.4,98.4c-.41.3-.82.6-1.24.89.42-.29.82-.6,1.24-.89Z"/>
          <path class="cls-1" d="M102.61,115.25c-.07.02-.14.03-.21.05.07-.01.14-.03.21-.05Z"/>
          <path class="cls-1" d="M147.49,92.12h0c-1.53,1.31-3.09,2.56-4.66,3.77,1.58-1.21,3.14-2.47,4.66-3.77Z"/>
          <path class="cls-1" d="M92.52,116.92c-.67.07-1.34.11-2,.17.67-.05,1.34-.1,2-.17Z"/>
          <path class="cls-1" d="M87.34,117.29c-.81.03-1.62.03-2.43.03.81,0,1.62,0,2.43-.03Z"/>
          <path class="cls-1" d="M75.29,20.06c7.27,0,13.16-2.8,13.16-6.26s-5.89-6.26-13.16-6.26-13.15,2.8-13.15,6.26,5.89,6.26,13.15,6.26Z"/>
          <path class="cls-1" d="M21.25,109.73c-2.44,2.45-.26,8.59,4.87,13.73s11.28,7.32,13.73,4.88.26-8.59-4.87-13.73c-5.14-5.14-11.28-7.32-13.73-4.88Z"/>
          <path class="cls-1" d="M74.71,129.94c-7.27,0-13.15,2.8-13.15,6.26s5.89,6.26,13.15,6.26,13.16-2.8,13.16-6.26-5.89-6.26-13.16-6.26Z"/>
          <path class="cls-1" d="M114.61,115.02c-5.14,5.14-7.32,11.28-4.87,13.73s8.59.26,13.73-4.88,7.32-11.28,4.87-13.73c-2.44-2.44-8.59-.26-13.73,4.88Z"/>
          <path class="cls-1" d="M13.8,61.56c-3.46,0-6.26,5.89-6.26,13.15s2.8,13.16,6.26,13.16,6.26-5.89,6.26-13.16-2.8-13.15-6.26-13.15Z"/>
          <path class="cls-1" d="M40.26,21.25c-2.44-2.44-8.59-.26-13.73,4.87-5.14,5.14-7.32,11.28-4.87,13.73,2.44,2.44,8.59.26,13.73-4.87,5.14-5.14,7.32-11.28,4.87-13.73Z"/>
          <path class="cls-1" d="M47.98,100.94c6.57,0,11.9-5.33,11.9-11.91s-5.33-11.91-11.9-11.91-11.91,5.33-11.91,11.91,5.33,11.91,11.91,11.91Z"/>
          <path class="cls-3" d="M147.49,92.12s.03-.02.04-.04c-.01.01-.03.02-.04.03h0Z"/>
          <path class="cls-4" d="M75.49,116.78c.35.04.69.1,1.05.14,1.1.12,2.21.19,3.33.26.72.05,1.44.1,2.16.13.96.03,1.92.02,2.88.02.81,0,1.62,0,2.43-.03,1.06-.04,2.12-.12,3.18-.2.67-.05,1.33-.1,2-.17,1.31-.14,2.62-.31,3.93-.51.38-.06.76-.11,1.14-.17,1.6-.27,3.2-.58,4.8-.94.07-.01.14-.03.21-.05,12.3-2.81,24.48-8.33,35.55-15.96.41-.29.82-.6,1.24-.89,1.15-.82,2.31-1.64,3.43-2.51,1.57-1.21,3.13-2.46,4.66-3.77,1.3-5.5,2.01-11.22,2.01-17.12C149.5,33.86,116.14.5,75,.5,49.3.5,26.65,13.52,13.26,33.31c5.25,55.03,31.66,79.56,62.23,83.47ZM75.03,60.26c-6.58,0-11.91-5.33-11.91-11.91s5.33-11.91,11.91-11.91,11.91,5.33,11.91,11.91-5.33,11.91-11.91,11.91ZM136.2,62.13c3.46,0,6.26,5.89,6.26,13.15s-2.8,13.16-6.26,13.16-6.26-5.89-6.26-13.16,2.8-13.15,6.26-13.15ZM110.14,21.66c2.44-2.45,8.59-.26,13.73,4.87s7.32,11.28,4.88,13.73-8.59.26-13.73-4.87c-5.14-5.14-7.32-11.28-4.88-13.73ZM102.07,77.13c6.57,0,11.9,5.33,11.9,11.91s-5.33,11.91-11.9,11.91-11.91-5.33-11.91-11.91,5.33-11.91,11.91-11.91ZM75.29,7.54c7.27,0,13.16,2.8,13.16,6.26s-5.89,6.26-13.16,6.26-13.15-2.8-13.15-6.26,5.89-6.26,13.15-6.26ZM21.66,39.86c-2.45-2.44-.26-8.59,4.87-13.73,5.14-5.14,11.28-7.32,13.73-4.87s.26,8.59-4.87,13.73c-5.14,5.14-11.28,7.32-13.73,4.87ZM47.98,77.13c6.57,0,11.9,5.33,11.9,11.91s-5.33,11.91-11.9,11.91-11.91-5.33-11.91-11.91,5.33-11.91,11.91-11.91Z"/>
          <path class="cls-2" d="M13.26,33.31s0,0,0-.01h0s0,.01,0,.01Z"/>
          <path class="cls-3" d="M138.16,99.29c-11.07,7.64-23.25,13.16-35.55,15.96,12.08-2.73,24.2-8.09,35.55-15.96Z"/>
          <path class="cls-2" d="M138.16,99.29c-11.07,7.64-23.25,13.16-35.55,15.96,12.08-2.73,24.2-8.09,35.55-15.96Z"/>
          <path class="cls-3" d="M84.91,117.32c-.96,0-1.92.01-2.88-.02.96.03,1.92.02,2.88.02Z"/>
          <path class="cls-2" d="M84.91,117.32c-.96,0-1.92.01-2.88-.02.96.03,1.92.02,2.88.02Z"/>
          <path class="cls-3" d="M146.54,95.85c.36-1.24.69-2.5.99-3.77-.01.01-.03.02-.04.04-.3,1.25-.59,2.51-.95,3.73Z"/>
          <path class="cls-2" d="M146.54,95.85c.36-1.24.69-2.5.99-3.77-.01.01-.03.02-.04.04-.3,1.25-.59,2.51-.95,3.73Z"/>
          <path class="cls-3" d="M142.83,95.89c-1.13.87-2.28,1.69-3.43,2.51,1.15-.82,2.3-1.64,3.43-2.51Z"/>
          <path class="cls-2" d="M142.83,95.89c-1.13.87-2.28,1.69-3.43,2.51,1.15-.82,2.3-1.64,3.43-2.51Z"/>
          <path class="cls-3" d="M13.26,33.3c-.06.09-.12.18-.18.27.06-.08.12-.17.18-.25h0Z"/>
          <path class="cls-2" d="M13.26,33.3c-.06.09-.12.18-.18.27.06-.08.12-.17.18-.25h0Z"/>
          <path class="cls-3" d="M90.52,117.09c-1.06.08-2.12.16-3.18.2,1.05-.04,2.12-.12,3.18-.2Z"/>
          <path class="cls-2" d="M90.52,117.09c-1.06.08-2.12.16-3.18.2,1.05-.04,2.12-.12,3.18-.2Z"/>
          <path class="cls-3" d="M102.4,115.3c-1.6.36-3.2.67-4.8.94,1.6-.26,3.2-.58,4.8-.94Z"/>
          <path class="cls-2" d="M102.4,115.3c-1.6.36-3.2.67-4.8.94,1.6-.26,3.2-.58,4.8-.94Z"/>
          <path class="cls-3" d="M79.87,117.18c-1.11-.07-2.23-.14-3.33-.26,1.1.12,2.21.19,3.33.26Z"/>
          <path class="cls-2" d="M79.87,117.18c-1.11-.07-2.23-.14-3.33-.26,1.1.12,2.21.19,3.33.26Z"/>
          <path class="cls-3" d="M96.45,116.41c-1.31.2-2.62.38-3.93.51,1.31-.13,2.62-.32,3.93-.51Z"/>
          <path class="cls-2" d="M96.45,116.41c-1.31.2-2.62.38-3.93.51,1.31-.13,2.62-.32,3.93-.51Z"/>
        </g>
        <path class="cls-5" d="M142.83,95.89c-1.13.87-2.28,1.69-3.43,2.51-.41.29-.82.6-1.24.89-11.34,7.88-23.47,13.24-35.55,15.96-.07.02-.14.03-.21.05-1.61.36-3.21.68-4.8.94-.38.07-.76.11-1.14.17-1.31.2-2.62.38-3.93.51-.67.07-1.33.11-2,.17-1.06.08-2.12.16-3.18.2-.81.03-1.62.03-2.43.03-.96,0-1.92.01-2.88-.02-.73-.02-1.44-.08-2.16-.13-1.11-.07-2.23-.14-3.33-.26-.35-.04-.7-.09-1.05-.14-30.57-3.91-56.98-28.44-62.23-83.47h0c-.06.08-.12.17-.18.25-.09.13-.17.26-.26.4-.07.1-.14.2-.2.31-.08.12-.16.25-.24.37-.07.1-.13.2-.19.3-.13.2-.25.4-.38.6-.06.09-.12.19-.18.29-.08.14-.17.27-.25.41l-.19.31c-.08.13-.16.26-.23.39-.06.1-.12.2-.18.3-.12.2-.24.41-.36.62-.05.09-.11.19-.16.28-.08.14-.16.29-.24.43-.06.1-.12.21-.17.32-.08.13-.15.27-.23.4-.05.1-.11.2-.16.3-.12.21-.23.42-.34.63-.05.09-.1.18-.15.28-.08.15-.16.3-.24.45l-.16.31c-.07.14-.14.28-.21.42-.05.1-.1.2-.15.3-.11.22-.22.44-.32.66-.04.08-.08.17-.12.25-.08.16-.15.32-.23.49-.05.1-.1.21-.14.31-.07.15-.14.29-.2.44-.05.1-.09.2-.14.3-.1.23-.21.46-.31.69-.03.08-.07.16-.1.24-.08.17-.15.34-.22.51l-.13.31c-.06.16-.13.31-.19.46-.04.1-.08.2-.12.3-.09.24-.19.47-.28.71-.03.07-.06.14-.08.21-.07.18-.14.36-.21.54-.04.1-.08.2-.11.3-.06.16-.12.32-.18.49-.03.1-.07.19-.1.29-.09.24-.18.49-.26.73-.02.07-.05.13-.07.2-.07.19-.13.38-.2.58-.03.1-.07.2-.1.3-.06.17-.11.34-.17.51-.03.09-.06.19-.09.28-.08.25-.16.5-.24.75-.02.06-.04.12-.05.17-.06.2-.13.41-.19.61-.03.09-.06.19-.08.29-.05.17-.1.35-.16.53-.03.09-.05.18-.08.28-.07.25-.15.51-.21.77-.01.05-.03.1-.04.15-.06.22-.11.43-.17.65-.02.09-.05.19-.07.28-.05.18-.09.37-.14.55-.02.09-.05.18-.07.27-.06.26-.13.52-.19.79,0,.04-.02.08-.03.13-.05.23-.1.46-.16.69l-.06.28c-.04.19-.08.38-.12.57-.02.09-.04.18-.05.26-.06.27-.11.53-.16.8,0,.03-.01.07-.02.1-.05.24-.09.48-.13.72-.02.09-.03.18-.05.27l-.1.59c-.01.08-.03.17-.04.26-.04.27-.09.55-.13.82,0,.02,0,.05-.01.08-.04.25-.08.5-.11.76-.01.09-.02.18-.04.26l-.08.6c-.01.09-.02.17-.03.26-.03.28-.07.56-.1.83,0,.02,0,.04,0,.06-.03.26-.06.53-.08.79,0,.09-.02.17-.03.26l-.06.62c0,.08-.02.17-.02.25-.02.28-.05.57-.07.85,0,.01,0,.02,0,.03-.02.27-.04.55-.06.82,0,.09,0,.17-.01.26-.01.21-.03.42-.04.63v.25c-.03.28-.04.57-.05.86,0,0,0,0,0,.01,0,.28-.02.57-.03.85,0,.08,0,.17,0,.26,0,.21,0,.42-.01.64,0,.09,0,.17,0,.26,0,.29,0,.58,0,.87,0,41.14,33.36,74.5,74.5,74.5h0c.3,0,.59,0,.89,0,.1,0,.2,0,.29,0,.2,0,.4,0,.61,0,.11,0,.23,0,.34,0,.19,0,.37-.01.56-.02.12,0,.24,0,.35-.01.19,0,.37-.02.56-.02.11,0,.23-.01.34-.02.2,0,.4-.02.6-.03.1,0,.2-.01.29-.02.29-.02.58-.04.87-.06,0,0,.01,0,.02,0,.29-.02.58-.05.87-.07.1,0,.19-.02.29-.03.2-.02.4-.04.59-.06.11-.01.23-.02.34-.04.18-.02.36-.04.54-.06.12-.01.23-.03.35-.04.18-.02.36-.04.54-.07.11-.01.23-.03.34-.04.19-.02.39-.05.58-.08.1-.01.19-.02.29-.04.28-.04.56-.08.83-.12.02,0,.04,0,.06,0,.28-.04.55-.09.83-.13.1-.01.19-.03.29-.05.19-.03.38-.07.57-.1.11-.02.23-.04.34-.06.17-.03.35-.06.53-.1.11-.02.23-.04.35-.07.17-.03.35-.07.52-.1.11-.02.22-.04.34-.07l.55-.12c.1-.02.2-.04.3-.06.26-.06.52-.12.78-.17.04,0,.08-.02.12-.03.26-.06.51-.12.77-.18.1-.02.2-.05.3-.07.18-.05.36-.09.54-.14.11-.03.23-.06.34-.09.17-.04.33-.09.5-.13.12-.03.23-.06.35-.09l.49-.14c.11-.03.23-.06.34-.09.17-.05.35-.1.52-.15.1-.03.21-.06.31-.09.24-.07.47-.15.71-.22.07-.02.14-.04.2-.06.24-.07.47-.15.7-.22l.31-.1c.17-.06.33-.11.5-.16.11-.04.23-.08.35-.12.15-.05.31-.11.46-.16.12-.04.24-.08.35-.12.16-.06.31-.11.46-.16.11-.04.23-.08.34-.13.16-.06.32-.12.48-.18.11-.04.21-.08.32-.12.21-.08.41-.16.62-.24l.33-.13c.2-.08.4-.16.61-.24.11-.04.22-.09.33-.14l.45-.19c.12-.05.24-.1.35-.15.14-.06.28-.12.43-.18.12-.05.24-.1.36-.16.14-.06.28-.12.42-.19l.36-.16c.14-.07.29-.13.43-.2.11-.05.23-.1.34-.16l.52-.25c.15-.07.3-.15.45-.22.17-.08.34-.16.51-.25l.35-.17.4-.2c.12-.06.24-.12.37-.19.13-.07.25-.13.38-.2.12-.07.25-.13.37-.19.13-.07.25-.13.37-.2.12-.07.25-.13.37-.2.13-.07.25-.14.37-.21.12-.07.24-.13.36-.2.14-.08.27-.15.4-.23.2-.12.41-.23.61-.35.13-.08.26-.15.39-.23.12-.07.25-.15.37-.22.12-.07.23-.14.35-.21.13-.08.25-.15.38-.23.11-.07.22-.14.33-.21.13-.08.25-.16.38-.24.11-.07.22-.14.32-.21.13-.08.25-.16.38-.24.11-.07.21-.14.32-.21.13-.08.25-.16.38-.25.09-.06.19-.13.28-.19.26-.17.51-.34.77-.52.09-.06.18-.12.27-.18.13-.09.26-.18.39-.27.09-.07.19-.13.29-.2.13-.09.26-.18.39-.28l.28-.2c.13-.09.26-.19.39-.28l.28-.2c.13-.1.26-.19.39-.29.09-.06.17-.13.26-.19.13-.1.27-.2.4-.31l.17-.13c.31-.24.62-.48.92-.72l.15-.12c.14-.11.27-.22.41-.33.08-.06.15-.12.23-.19.13-.11.26-.22.4-.33.08-.07.16-.13.24-.2.13-.11.26-.22.39-.33.08-.06.15-.13.23-.19.13-.11.27-.23.4-.34.07-.06.13-.12.2-.18.14-.12.28-.25.42-.37.02-.02.04-.03.06-.05.35-.32.7-.64,1.05-.96.01-.01.02-.02.04-.03.14-.13.28-.27.43-.4.06-.06.11-.11.17-.16.13-.13.27-.25.4-.38.07-.06.13-.12.19-.18.13-.13.26-.25.39-.38.06-.06.12-.12.18-.18.13-.13.27-.26.4-.4.05-.05.1-.1.15-.15.65-.65,1.29-1.32,1.91-2.01.04-.04.08-.09.12-.13.13-.15.26-.29.4-.44.05-.05.1-.11.15-.16.13-.15.26-.29.39-.44l.14-.16c.13-.15.27-.3.4-.46.03-.04.07-.08.1-.12.62-.72,1.22-1.46,1.82-2.2l.08-.1c.13-.16.26-.33.39-.49.04-.05.08-.09.11-.14.13-.16.25-.33.38-.49.04-.05.07-.09.11-.14.13-.17.26-.34.38-.51.02-.03.04-.06.06-.08.58-.78,1.15-1.58,1.7-2.39l.04-.07c.12-.18.25-.37.37-.55.03-.04.05-.08.08-.12.12-.18.24-.36.36-.54.02-.04.05-.08.08-.12.12-.19.24-.38.36-.57.01-.02.02-.04.03-.05.54-.84,1.06-1.7,1.56-2.57,0,0,.01-.02.02-.03.12-.2.23-.4.35-.6.02-.03.04-.07.06-.1.11-.19.22-.39.33-.59.02-.03.04-.07.06-.1.11-.2.22-.41.33-.61,0,0,0-.01.01-.02.48-.9.95-1.81,1.4-2.73,0,0,0,0,0,0,.1-.21.21-.43.31-.65.01-.03.03-.06.04-.09.1-.21.2-.42.29-.63.01-.03.03-.06.04-.08.1-.22.2-.44.3-.66.52-1.17,1.02-2.35,1.48-3.55,0-.03.02-.05.03-.08.09-.22.17-.44.25-.66,0-.03.02-.05.03-.08.54-1.43,1.03-2.89,1.48-4.36,0-.03.01-.05.02-.08.07-.23.14-.46.2-.69,0-.03.01-.05.02-.08.36-1.23.65-2.48.95-3.73-1.52,1.3-3.08,2.55-4.66,3.77ZM13.8,87.87c-3.46,0-6.26-5.89-6.26-13.16s2.8-13.15,6.26-13.15,6.26,5.89,6.26,13.15-2.8,13.16-6.26,13.16ZM39.86,128.34c-2.44,2.44-8.59.26-13.73-4.88s-7.32-11.28-4.87-13.73c2.44-2.44,8.59-.26,13.73,4.88,5.14,5.14,7.32,11.28,4.87,13.73ZM74.71,142.46c-7.27,0-13.15-2.8-13.15-6.26s5.89-6.26,13.15-6.26,13.16,2.8,13.16,6.26-5.89,6.26-13.16,6.26ZM123.46,123.87c-5.14,5.14-11.28,7.32-13.73,4.88s-.26-8.59,4.87-13.73c5.14-5.14,11.28-7.32,13.73-4.88,2.45,2.44.26,8.59-4.87,13.73Z"/>
      </g>
    </g>
  </g>
</svg>